name rise32.9588peak41.5061fall63.4684.mot
datacolumns 19
datarows 21
range 18.63659300000000 18.66992800000000
endheader
time	ground_force1_vx	ground_force1_vy	ground_force1_vz	ground_force1_px	ground_force1_py	ground_force1_pz	ground_force2_vx	ground_force2_vy	ground_force2_vz	ground_force2_px	ground_force2_py	ground_force2_pz	ground_torque1_x	ground_torque1_y	ground_torque1_z	ground_torque2_x	ground_torque2_y	ground_torque2_z	
18.63659300000000	8.26773600000000	701.67806800000005	32.29232500000000	0.17849900000000	0.00000000000000	0.09108400000000	0.00000000000000	0.00000000000000	0.00000000000000	0.00000000000000	0.00000000000000	0.00000000000000	0.00000000000000	10.93541600000000	0.00000000000000	0.00000000000000	0.00000000000000	0.00000000000000	
18.63826400000000	7.86994600000000	702.37599999999998	32.27946500000000	0.17761500000000	0.00000000000000	0.09105500000000	0.00000000000000	0.00000000000000	0.00000000000000	0.00000000000000	0.00000000000000	0.00000000000000	0.00000000000000	10.98208900000000	0.00000000000000	0.00000000000000	0.00000000000000	0.00000000000000	
18.63992900000000	7.46129900000000	703.12278500000002	32.27147600000000	0.17671400000000	0.00000000000000	0.09102800000000	0.00000000000000	0.00000000000000	0.00000000000000	0.00000000000000	0.00000000000000	0.00000000000000	0.00000000000000	11.03273800000000	0.00000000000000	0.00000000000000	0.00000000000000	0.00000000000000	
18.64160000000000	7.04138900000000	703.91807900000003	32.26827600000000	0.17579800000000	0.00000000000000	0.09100400000000	0.00000000000000	0.00000000000000	0.00000000000000	0.00000000000000	0.00000000000000	0.00000000000000	0.00000000000000	11.08731800000000	0.00000000000000	0.00000000000000	0.00000000000000	0.00000000000000	
18.64326300000000	6.60984500000000	704.76154699999995	32.26978700000000	0.17486400000000	0.00000000000000	0.09098200000000	0.00000000000000	0.00000000000000	0.00000000000000	0.00000000000000	0.00000000000000	0.00000000000000	0.00000000000000	11.14578100000000	0.00000000000000	0.00000000000000	0.00000000000000	0.00000000000000	
18.64492800000000	6.16633200000000	705.65287000000001	32.27593500000000	0.17391400000000	0.00000000000000	0.09096300000000	0.00000000000000	0.00000000000000	0.00000000000000	0.00000000000000	0.00000000000000	0.00000000000000	0.00000000000000	11.20807400000000	0.00000000000000	0.00000000000000	0.00000000000000	0.00000000000000	
18.64659600000000	5.71055000000000	706.59174399999995	32.28665000000000	0.17294700000000	0.00000000000000	0.09094500000000	0.00000000000000	0.00000000000000	0.00000000000000	0.00000000000000	0.00000000000000	0.00000000000000	0.00000000000000	11.27414200000000	0.00000000000000	0.00000000000000	0.00000000000000	0.00000000000000	
18.64826800000000	5.24223800000000	707.57788000000005	32.30186900000000	0.17196500000000	0.00000000000000	0.09093100000000	0.00000000000000	0.00000000000000	0.00000000000000	0.00000000000000	0.00000000000000	0.00000000000000	0.00000000000000	11.34392500000000	0.00000000000000	0.00000000000000	0.00000000000000	0.00000000000000	
18.64992800000000	4.76117400000000	708.61100199999998	32.32153300000000	0.17096700000000	0.00000000000000	0.09091800000000	0.00000000000000	0.00000000000000	0.00000000000000	0.00000000000000	0.00000000000000	0.00000000000000	0.00000000000000	11.41736000000000	0.00000000000000	0.00000000000000	0.00000000000000	0.00000000000000	
18.65159800000000	4.26717300000000	709.69085199999995	32.34558800000000	0.16995400000000	0.00000000000000	0.09090700000000	0.00000000000000	0.00000000000000	0.00000000000000	0.00000000000000	0.00000000000000	0.00000000000000	0.00000000000000	11.49437700000000	0.00000000000000	0.00000000000000	0.00000000000000	0.00000000000000	
18.65326100000000	3.76009200000000	710.81718200000000	32.37398900000000	0.16892700000000	0.00000000000000	0.09089900000000	0.00000000000000	0.00000000000000	0.00000000000000	0.00000000000000	0.00000000000000	0.00000000000000	0.00000000000000	11.57490300000000	0.00000000000000	0.00000000000000	0.00000000000000	0.00000000000000	
18.65493100000000	3.23982500000000	711.98975900000005	32.40669400000000	0.16788700000000	0.00000000000000	0.09089300000000	0.00000000000000	0.00000000000000	0.00000000000000	0.00000000000000	0.00000000000000	0.00000000000000	0.00000000000000	11.65886200000000	0.00000000000000	0.00000000000000	0.00000000000000	0.00000000000000	
18.65659500000000	2.70630900000000	713.20835599999998	32.44366900000000	0.16683400000000	0.00000000000000	0.09088800000000	0.00000000000000	0.00000000000000	0.00000000000000	0.00000000000000	0.00000000000000	0.00000000000000	0.00000000000000	11.74617100000000	0.00000000000000	0.00000000000000	0.00000000000000	0.00000000000000	
18.65826300000000	2.15951700000000	714.47275800000000	32.48488600000000	0.16577000000000	0.00000000000000	0.09088600000000	0.00000000000000	0.00000000000000	0.00000000000000	0.00000000000000	0.00000000000000	0.00000000000000	0.00000000000000	11.83674300000000	0.00000000000000	0.00000000000000	0.00000000000000	0.00000000000000	
18.65993200000000	1.59946400000000	715.78274899999997	32.53032600000000	0.16469500000000	0.00000000000000	0.09088500000000	0.00000000000000	0.00000000000000	0.00000000000000	0.00000000000000	0.00000000000000	0.00000000000000	0.00000000000000	11.93048700000000	0.00000000000000	0.00000000000000	0.00000000000000	0.00000000000000	
18.66160100000000	1.02620500000000	717.13811599999997	32.57997300000000	0.16361000000000	0.00000000000000	0.09088500000000	0.00000000000000	0.00000000000000	0.00000000000000	0.00000000000000	0.00000000000000	0.00000000000000	0.00000000000000	12.02730500000000	0.00000000000000	0.00000000000000	0.00000000000000	0.00000000000000	
18.66327200000000	0.43983100000000	718.53864199999998	32.63382000000000	0.16251800000000	0.00000000000000	0.09088700000000	0.00000000000000	0.00000000000000	0.00000000000000	0.00000000000000	0.00000000000000	0.00000000000000	0.00000000000000	12.12709600000000	0.00000000000000	0.00000000000000	0.00000000000000	0.00000000000000	
18.66492900000000	-0.15952600000000	719.98410400000000	32.69186800000000	0.16141900000000	0.00000000000000	0.09089100000000	0.00000000000000	0.00000000000000	0.00000000000000	0.00000000000000	0.00000000000000	0.00000000000000	0.00000000000000	12.22975200000000	0.00000000000000	0.00000000000000	0.00000000000000	0.00000000000000	
18.66660100000000	-0.77169700000000	721.47426199999995	32.75412100000000	0.16031300000000	0.00000000000000	0.09089600000000	0.00000000000000	0.00000000000000	0.00000000000000	0.00000000000000	0.00000000000000	0.00000000000000	0.00000000000000	12.33516200000000	0.00000000000000	0.00000000000000	0.00000000000000	0.00000000000000	
18.66827000000000	-1.39647700000000	723.00886300000002	32.82059400000000	0.15920400000000	0.00000000000000	0.09090100000000	0.00000000000000	0.00000000000000	0.00000000000000	0.00000000000000	0.00000000000000	0.00000000000000	0.00000000000000	12.44320800000000	0.00000000000000	0.00000000000000	0.00000000000000	0.00000000000000	
18.66992800000000	-2.03362400000000	724.58762700000000	32.89130400000000	0.15809000000000	0.00000000000000	0.09090800000000	0.00000000000000	0.00000000000000	0.00000000000000	0.00000000000000	0.00000000000000	0.00000000000000	0.00000000000000	12.55376600000000	0.00000000000000	0.00000000000000	0.00000000000000	0.00000000000000	
